<svg id="Слой_1" data-name="Слой 1" xmlns="http://www.w3.org/2000/svg" viewBox="0 0 62 62"><defs><style>.cls-1{fill:none;stroke:#2ebd59;stroke-miterlimit:10;stroke-width:2px;}</style></defs><title>air</title><circle class="cls-1" cx="31" cy="31" r="30"/><circle class="cls-1" cx="31" cy="31" r="5"/><path class="cls-1" d="M545.36,1355.48c1.73-3.69,3.91-8.73,3.91-10.73a6,6,0,0,0-12,0c0,2.08,2.37,7.48,4.13,11.19" transform="translate(-512.68 -1329.67)"/><path class="cls-1" d="M540.7,1365.3c-2,3.56-4.8,8.27-6.43,9.44a6,6,0,0,1-7-9.74c1.69-1.22,7.45-2.44,11.5-3.18" transform="translate(-512.68 -1329.67)"/><path class="cls-1" d="M546.77,1365.3c2,3.56,4.8,8.27,6.43,9.44a6,6,0,0,0,7-9.74c-1.69-1.22-7.45-2.44-11.5-3.18" transform="translate(-512.68 -1329.67)"/><path class="cls-1" d="M554.74,1344a20,20,0,0,1,8.94,16.67" transform="translate(-512.68 -1329.67)"/><path class="cls-1" d="M523.68,1360.67a20,20,0,0,1,8.82-16.58" transform="translate(-512.68 -1329.67)"/><path class="cls-1" d="M552.17,1378.78a20,20,0,0,1-17.09-.05" transform="translate(-512.68 -1329.67)"/></svg>