<svg id="Слой_1" data-name="Слой 1" xmlns="http://www.w3.org/2000/svg" viewBox="0 0 62 62"><defs><style>.cls-1{fill:none;stroke:#2ebd59;stroke-linecap:round;stroke-linejoin:round;stroke-width:2px;}</style></defs><title>dollar</title><circle class="cls-1" cx="31" cy="31" r="30"/><path class="cls-1" d="M1015.44,1360.5a25,25,0,0,1,25-25" transform="translate(-1009.44 -1329.5)"/><path class="cls-1" d="M1065.44,1360.5a25,25,0,0,1-25,25" transform="translate(-1009.44 -1329.5)"/><path class="cls-1" d="M1033.84,1367a6.58,6.58,0,0,0,13.15,0" transform="translate(-1009.44 -1329.5)"/><path class="cls-1" d="M1047,1353.68a6.58,6.58,0,1,0-13.15,0" transform="translate(-1009.44 -1329.5)"/><path class="cls-1" d="M1033.84,1353.73a6.58,6.58,0,0,0,6.58,6.58" transform="translate(-1009.44 -1329.5)"/><path class="cls-1" d="M1047,1366.93a6.58,6.58,0,0,0-6.58-6.58" transform="translate(-1009.44 -1329.5)"/><line class="cls-1" x1="31.56" y1="13.5" x2="31.56" y2="48.5"/></svg>