<svg id="Слой_1" data-name="Слой 1" xmlns="http://www.w3.org/2000/svg" viewBox="0 0 62 62.23"><defs><style>.cls-1{fill:none;stroke:#2ebd59;stroke-miterlimit:10;stroke-width:2px;}</style></defs><title>key</title><path class="cls-1" d="M321,1344.81a1.38,1.38,0,0,0-2.36-.86l-7.78,7.78-8.63-2.73-2.73-8.63,7.78-7.78a1.38,1.38,0,0,0-.86-2.36,16,16,0,0,0-16.36,21.63c-0.24.2-.47,0.41-0.7,0.63l-26,24.52,0,0a7.81,7.81,0,1,0,11,11l0,0,24.31-26.19a9.18,9.18,0,0,0,.62-0.69A16,16,0,0,0,321,1344.81Zm-50.52,40a2.88,2.88,0,1,1,0-4.08A2.88,2.88,0,0,1,270.51,1384.83Z" transform="translate(-260.08 -1329.17)"/></svg>