<svg id="Слой_1" data-name="Слой 1" xmlns="http://www.w3.org/2000/svg" viewBox="0 0 50.47 52"><defs><style>.cls-1{fill:none;stroke:#2ebd59;stroke-linecap:round;stroke-linejoin:round;stroke-width:2px;}</style></defs><title>call</title><polygon class="cls-1" points="28.26 40.47 21.77 40.59 21.89 34.11 43.1 12.89 49.47 19.26 28.26 40.47"/><line class="cls-1" x1="39.57" y1="16.43" x2="42.4" y2="19.26"/><line class="cls-1" x1="9" y1="41" x2="17" y2="41"/><line class="cls-1" x1="9" y1="10" x2="34" y2="10"/><line class="cls-1" x1="9" y1="18" x2="30" y2="18"/><line class="cls-1" x1="9" y1="26" x2="24" y2="26"/><line class="cls-1" x1="9" y1="34" x2="17" y2="34"/><path class="cls-1" d="M431,1934v9c0,1.66-1.81,3-3.47,3h-31c-1.66,0-2.53-1.34-2.53-3v-44c0-1.66.87-3,2.53-3h31c1.66,0,3.47,1.34,3.47,3v7" transform="translate(-393 -1895)"/></svg>