<svg id="Слой_1" data-name="Слой 1" xmlns="http://www.w3.org/2000/svg" viewBox="0 0 77.12 36.72"><defs><style>.cls-1{fill:none;stroke:#2ebd59;stroke-linecap:round;stroke-linejoin:round;stroke-width:2px;}</style></defs><title>car</title><path class="cls-1" d="M962.76,1932.87a5.24,5.24,0,0,0,4-2.83,9.16,9.16,0,0,0,.18-7.05,13.38,13.38,0,0,1-.51-3.47c-0.11-1.27-.22-2.71-0.45-4-0.16-.87-0.51-2-1.71-2l-0.36,0-0.27,0a0.43,0.43,0,0,1-.09-0.18c-0.35-1-1.82-2.25-3.7-3.78-0.46-.37-1-0.83-1.26-1.06a2.39,2.39,0,0,0-.34-1.85,1.47,1.47,0,0,0-1.19-.52l-0.41,0a18.42,18.42,0,0,1-2.63-.45,95.64,95.64,0,0,0-18.39-2.11c-13.22-.26-23.61,9.28-24,9.68l-0.31.28c-0.54.26-2.26,0.89-7.5,1.92-7.43,1.46-8.85,3.83-9.12,4.75A4.47,4.47,0,0,0,893,1923a3.39,3.39,0,0,1-.4,1.4l-0.13.17v7.12c0.4,1.86,2.33,2.84,5.57,2.84a13.47,13.47,0,0,0,1.78-.11l1.14,0" transform="translate(-891.44 -1902.67)"/><path class="cls-1" d="M915.69,1934.13c9.74-.21,22.13-0.48,31.72-0.73" transform="translate(-891.44 -1902.67)"/><path class="cls-1" d="M902.21,1934.41a6.59,6.59,0,0,0,12.2-.26c0.08-.2.14-0.4,0.2-0.6s0.1-.4.14-0.6a6.7,6.7,0,0,0,.11-1.17,6.6,6.6,0,1,0-13,1.44,5.88,5.88,0,0,0,.16.59C902,1934,902.12,1934.22,902.21,1934.41Z" transform="translate(-891.44 -1902.67)"/><path class="cls-1" d="M948.64,1933.37a6.59,6.59,0,0,0,12.88-.4c0-.2.06-0.4,0.08-0.6s0-.39,0-0.59v0a6.6,6.6,0,0,0-13.2,0c0,0.13,0,.26,0,0.39s0,0.4.06,0.6S948.6,1933.18,948.64,1933.37Z" transform="translate(-891.44 -1902.67)"/><line class="cls-1" x1="53.56" y1="2.83" x2="54.56" y2="10.83"/><path class="cls-1" d="M917,1915.33s32.83-1.83,38-1.83" transform="translate(-891.44 -1902.67)"/><line class="cls-1" x1="26.53" y1="25.65" x2="53.07" y2="24.97"/><line class="cls-1" x1="72.06" y1="24.44" x2="76.06" y2="24.33"/><line class="cls-1" x1="1" y1="26.33" x2="7.81" y2="26.15"/></svg>