<svg id="Слой_1" data-name="Слой 1" xmlns="http://www.w3.org/2000/svg" viewBox="0 0 37.72 75.26"><defs><style>.cls-1{fill:none;stroke:#2ebd59;stroke-linecap:round;stroke-linejoin:round;stroke-width:2px;}</style></defs><title>chemistry</title><path class="cls-1" d="M675,1916v-15a2,2,0,0,0,2-2v-3a2,2,0,0,0-2-2H664a2,2,0,0,0-2,2v3a2,2,0,0,0,2,2v15.18a17.9,17.9,0,1,0,23.66,16.94C687.66,1925.1,683,1918.31,675,1916Z" transform="translate(-650.94 -1876.77)"/><path class="cls-1" d="M687.16,1932.59c0,1.38-7.76,2.51-17.33,2.51s-17.33-1.12-17.33-2.51c0-1,3.95-1.84,9.68-2.25,2.31-.16,4.9-0.26,7.65-0.26,3.64,0,7,.16,9.82.44C684.18,1931,687.16,1931.74,687.16,1932.59Z" transform="translate(-650.94 -1876.77)"/><path class="cls-1" d="M663.24,1944.66a13.23,13.23,0,0,1-5.15-5.22" transform="translate(-650.94 -1876.77)"/><circle class="cls-1" cx="15.11" cy="9.71" r="2.15"/><path class="cls-1" d="M669.67,1920a13.14,13.14,0,0,1,10.17,4.8" transform="translate(-650.94 -1876.77)"/><circle class="cls-1" cx="23.7" cy="9.71" r="2.15"/><circle class="cls-1" cx="19.16" cy="3.15" r="2.15"/></svg>