<svg id="Слой_1" data-name="Слой 1" xmlns="http://www.w3.org/2000/svg" viewBox="0 0 57.5 64.95"><defs><style>.cls-1{fill:none;stroke:#2ebd59;stroke-linecap:round;stroke-linejoin:round;stroke-width:2px;}</style></defs><title>drop</title><path class="cls-1" d="M1207,1915.5a17,17,0,0,1-34,0c0-9.39,17-27.95,17-27.95S1207,1906.11,1207,1915.5Z" transform="translate(-1161.5 -1886.55)"/><path class="cls-1" d="M1204.83,1932.81c1.69,0.92,2.67,2,2.67,3.19,0,3.31-7.84,6-17.5,6s-17.5-2.69-17.5-6c0-1.14.92-2.2,2.53-3.11" transform="translate(-1161.5 -1886.55)"/><path class="cls-1" d="M1211.55,1934.5c4,1.69,6.45,3.87,6.45,6.25,0,5.38-12.42,9.75-27.75,9.75s-27.75-4.37-27.75-9.75a4.71,4.71,0,0,1,1.68-3.34" transform="translate(-1161.5 -1886.55)"/><path class="cls-1" d="M1190.33,1927a11.67,11.67,0,0,1-11.67-11.67" transform="translate(-1161.5 -1886.55)"/></svg>