<svg id="Слой_1" data-name="Слой 1" xmlns="http://www.w3.org/2000/svg" viewBox="0 0 51.65 54.41"><defs><style>.cls-1{fill:none;stroke:#2ebd59;stroke-linecap:round;stroke-linejoin:round;stroke-width:2px;}</style></defs><title>finalwash</title><path class="cls-1" d="M954.54,2518.3a1.28,1.28,0,0,0-1-.47h-4.83c-1.19-3.15-2.75-6.23-4.51-7.39-6.11-4-22.31-4-28.42,0-1.77,1.16-3.31,4.25-4.51,7.39h-4.83a1.27,1.27,0,0,0-1.24,1.53l0.72,3.47a1.27,1.27,0,0,0,1.24,1h1.43a8.58,8.58,0,0,0-2.06,5.61,8.4,8.4,0,0,0,2.66,6.31l0.06,0v4.85a1.91,1.91,0,0,0,1.91,1.91h4.46a1.91,1.91,0,0,0,1.91-1.91v-2h25v2a1.91,1.91,0,0,0,1.91,1.91h4.46a1.91,1.91,0,0,0,1.91-1.91v-4.76a8.72,8.72,0,0,0,.56-12.06h1.53a1.27,1.27,0,0,0,1.24-1l0.72-3.47A1.28,1.28,0,0,0,954.54,2518.3Zm-36.66-4.67c4.87-3.21,19.36-3.21,24.23,0,0.95,0.62,2.16,3.13,3.28,6.2H914.61C915.72,2516.76,916.94,2514.25,917.88,2513.63Z" transform="translate(-904.17 -2489.16)"/><path class="cls-1" d="M920.92,2495.86a3.47,3.47,0,1,1-6.94,0c0-1.92,3.47-5.7,3.47-5.7S920.92,2493.95,920.92,2495.86Z" transform="translate(-904.17 -2489.16)"/><path class="cls-1" d="M933.47,2495.86a3.47,3.47,0,1,1-6.94,0c0-1.92,3.47-5.7,3.47-5.7S933.47,2493.95,933.47,2495.86Z" transform="translate(-904.17 -2489.16)"/><path class="cls-1" d="M946,2495.86a3.47,3.47,0,1,1-6.94,0c0-1.92,3.47-5.7,3.47-5.7S946,2493.95,946,2495.86Z" transform="translate(-904.17 -2489.16)"/><circle class="cls-1" cx="10.39" cy="39.9" r="2.89"/><circle class="cls-1" cx="41.39" cy="39.9" r="2.89"/></svg>