<svg id="Слой_1" data-name="Слой 1" xmlns="http://www.w3.org/2000/svg" viewBox="0 0 59.09 59.09"><defs><style>.cls-1{fill:none;stroke:#2ebd59;stroke-linecap:round;stroke-linejoin:round;stroke-width:2px;}</style></defs><title>tube</title><path class="cls-1" d="M554.85,2201.32l-3.26-3.26s-3,4.62-5.71,1.9l-34.26,31.54,6.53,6.53" transform="translate(-510.62 -2186.45)"/><path class="cls-1" d="M554.85,2201.32l3.26,3.26s-4.62,3-1.9,5.71l-31.54,34.26-6.53-6.53" transform="translate(-510.62 -2186.45)"/><line class="cls-1" x1="32.81" y1="16.5" x2="42.6" y2="26.28"/><line class="cls-1" x1="5.08" y1="42.6" x2="16.5" y2="54.02"/><line class="cls-1" x1="49.12" y1="13.23" x2="46.68" y2="15.68"/><line class="cls-1" x1="43.41" y1="12.42" x2="45.86" y2="9.97"/><polyline class="cls-1" points="48.31 10.79 45.05 7.53 54.83 1 56.46 2.63"/><polyline class="cls-1" points="48.31 10.79 51.57 14.05 58.09 4.26 56.46 2.63"/></svg>