<svg id="Слой_1" data-name="Слой 1" xmlns="http://www.w3.org/2000/svg" viewBox="0 0 34 64"><defs><style>.cls-1{fill:none;stroke:#2ebd59;stroke-linecap:round;stroke-linejoin:round;stroke-width:2px;}</style></defs><title>vosque</title><path class="cls-1" d="M683,2514a3.43,3.43,0,0,0,3-3.39v-0.12a3.44,3.44,0,0,0-3.44-3.44H657.44a3.44,3.44,0,0,0-3.44,3.44v0.13a3.43,3.43,0,0,0,3,3.39v27h0.44a3.44,3.44,0,0,0-3.44,3.44v0.13a3.44,3.44,0,0,0,3.44,3.44h25.13a3.44,3.44,0,0,0,3.44-3.44v-0.12a3.44,3.44,0,0,0-3.44-3.44H683v-27Z" transform="translate(-653 -2485)"/><path class="cls-1" d="M658.1,2506.78a11.9,11.9,0,1,1,23.8,0" transform="translate(-653 -2485)"/><line class="cls-1" x1="17" y1="9" x2="17" y2="5"/><rect class="cls-1" x="15" y="1" width="4" height="4"/><line class="cls-1" x1="8" y1="56" x2="26" y2="56"/><line class="cls-1" x1="8" y1="29" x2="26" y2="29"/></svg>